G04 #@! TF.GenerationSoftware,KiCad,Pcbnew,(5.1.9)-1*
G04 #@! TF.CreationDate,2021-09-15T15:10:51+02:00*
G04 #@! TF.ProjectId,Shield-IO,53686965-6c64-42d4-994f-2e6b69636164,rev?*
G04 #@! TF.SameCoordinates,PXd59f80PYd59f80*
G04 #@! TF.FileFunction,Soldermask,Top*
G04 #@! TF.FilePolarity,Negative*
%FSLAX46Y46*%
G04 Gerber Fmt 4.6, Leading zero omitted, Abs format (unit mm)*
G04 Created by KiCad (PCBNEW (5.1.9)-1) date 2021-09-15 15:10:51*
%MOMM*%
%LPD*%
G01*
G04 APERTURE LIST*
%ADD10R,1.600000X1.200000*%
%ADD11R,1.000000X1.700000*%
%ADD12C,1.400000*%
%ADD13C,1.600000*%
%ADD14R,1.200000X2.500000*%
%ADD15R,1.400000X2.000000*%
G04 APERTURE END LIST*
D10*
X59000000Y-41100000D03*
X59000000Y-43900000D03*
X55800000Y-41100000D03*
X55800000Y-43900000D03*
X52600000Y-41100000D03*
X52600000Y-43900000D03*
X49400000Y-41100000D03*
X49400000Y-43900000D03*
X46200000Y-41100000D03*
X46200000Y-43900000D03*
X43000000Y-41100000D03*
X43000000Y-43900000D03*
X39800000Y-41100000D03*
X39800000Y-43900000D03*
X36600000Y-41100000D03*
X36600000Y-43900000D03*
X33400000Y-41100000D03*
X33400000Y-43900000D03*
X30200000Y-41100000D03*
X30200000Y-43900000D03*
X27000000Y-41100000D03*
X27000000Y-43900000D03*
X23800000Y-41100000D03*
X23800000Y-43900000D03*
X20600000Y-41100000D03*
X20600000Y-43900000D03*
X17400000Y-41100000D03*
X17400000Y-43900000D03*
X14200000Y-41100000D03*
X14200000Y-43900000D03*
X11000000Y-41100000D03*
X11000000Y-43900000D03*
D11*
X33400000Y-31600000D03*
X33400000Y-26400000D03*
X31800000Y-31600000D03*
X35000000Y-31600000D03*
X31800000Y-26400000D03*
X35000000Y-26400000D03*
D12*
X3230000Y-36160000D03*
X5770000Y-38700000D03*
X3230000Y-41240000D03*
X5770000Y-36160000D03*
X3230000Y-38700000D03*
X5770000Y-43780000D03*
X3230000Y-46320000D03*
X5770000Y-46320000D03*
X3230000Y-48860000D03*
X3230000Y-43780000D03*
X5770000Y-48860000D03*
X5770000Y-41240000D03*
X3230000Y-8220000D03*
X5770000Y-5680000D03*
X3230000Y-5680000D03*
X5770000Y-15840000D03*
X5770000Y-31080000D03*
X5770000Y-3140000D03*
X3230000Y-23460000D03*
X3230000Y-18380000D03*
X3230000Y-3140000D03*
X5770000Y-28540000D03*
X3230000Y-15840000D03*
X5770000Y-13300000D03*
X5770000Y-8220000D03*
X5770000Y-20920000D03*
X3230000Y-13300000D03*
X3230000Y-33620000D03*
X3230000Y-31080000D03*
X3230000Y-28540000D03*
X5770000Y-23460000D03*
X5770000Y-10760000D03*
X5770000Y-33620000D03*
X5770000Y-26000000D03*
X3230000Y-26000000D03*
X3230000Y-20920000D03*
X5770000Y-18380000D03*
X3230000Y-10760000D03*
X64230000Y-36160000D03*
X66770000Y-38700000D03*
X64230000Y-41240000D03*
X66770000Y-36160000D03*
X64230000Y-38700000D03*
X66770000Y-43780000D03*
X64230000Y-46320000D03*
X66770000Y-46320000D03*
X64230000Y-48860000D03*
X64230000Y-43780000D03*
X66770000Y-48860000D03*
X66770000Y-41240000D03*
X64230000Y-8220000D03*
X66770000Y-5680000D03*
X64230000Y-5680000D03*
X66770000Y-15840000D03*
X66770000Y-31080000D03*
X66770000Y-3140000D03*
X64230000Y-23460000D03*
X64230000Y-18380000D03*
X64230000Y-3140000D03*
X66770000Y-28540000D03*
X64230000Y-15840000D03*
X66770000Y-13300000D03*
X66770000Y-8220000D03*
X66770000Y-20920000D03*
X64230000Y-13300000D03*
X64230000Y-33620000D03*
X64230000Y-31080000D03*
X64230000Y-28540000D03*
X66770000Y-23460000D03*
X66770000Y-10760000D03*
X66770000Y-33620000D03*
X66770000Y-26000000D03*
X64230000Y-26000000D03*
X64230000Y-20920000D03*
X66770000Y-18380000D03*
X64230000Y-10760000D03*
D13*
X20130000Y-14130000D03*
X30290000Y-14130000D03*
X27750000Y-14130000D03*
X15050000Y-14130000D03*
X12510000Y-14130000D03*
X25210000Y-14130000D03*
X22670000Y-14130000D03*
X17590000Y-14130000D03*
X12510000Y-16670000D03*
X15050000Y-16670000D03*
X17590000Y-16670000D03*
X20130000Y-16670000D03*
X22670000Y-16670000D03*
X25210000Y-16670000D03*
X27750000Y-16670000D03*
X30290000Y-16670000D03*
X43190000Y-14130000D03*
X53350000Y-14130000D03*
X50810000Y-14130000D03*
X38110000Y-14130000D03*
X55890000Y-14130000D03*
X35570000Y-14130000D03*
X48270000Y-14130000D03*
X45730000Y-14130000D03*
X58430000Y-14130000D03*
X40650000Y-14130000D03*
X55890000Y-16670000D03*
X58430000Y-16670000D03*
X35570000Y-16670000D03*
X38110000Y-16670000D03*
X40650000Y-16670000D03*
X43190000Y-16670000D03*
X45730000Y-16670000D03*
X48270000Y-16670000D03*
X50810000Y-16670000D03*
X53350000Y-16670000D03*
D14*
X57690000Y-33407000D03*
X57690000Y-24593000D03*
X55150000Y-33407000D03*
X55150000Y-24593000D03*
X52610000Y-24593000D03*
X52610000Y-33407000D03*
X50070000Y-24593000D03*
X50070000Y-33407000D03*
X44990000Y-24593000D03*
X44990000Y-33407000D03*
X42450000Y-24593000D03*
X42450000Y-33407000D03*
X47530000Y-33407000D03*
X47530000Y-24593000D03*
X39910000Y-24593000D03*
X39910000Y-33407000D03*
D15*
X27000000Y-32600000D03*
X27000000Y-25400000D03*
X22000000Y-32600000D03*
X22000000Y-25400000D03*
X17000000Y-32600000D03*
X17000000Y-25400000D03*
X12000000Y-32600000D03*
X12000000Y-25400000D03*
M02*
