G04 #@! TF.GenerationSoftware,KiCad,Pcbnew,(5.1.9)-1*
G04 #@! TF.CreationDate,2021-09-15T15:10:51+02:00*
G04 #@! TF.ProjectId,Shield-IO,53686965-6c64-42d4-994f-2e6b69636164,rev?*
G04 #@! TF.SameCoordinates,PXd59f80PYd59f80*
G04 #@! TF.FileFunction,Paste,Bot*
G04 #@! TF.FilePolarity,Positive*
%FSLAX46Y46*%
G04 Gerber Fmt 4.6, Leading zero omitted, Abs format (unit mm)*
G04 Created by KiCad (PCBNEW (5.1.9)-1) date 2021-09-15 15:10:51*
%MOMM*%
%LPD*%
G01*
G04 APERTURE LIST*
%ADD10R,0.350000X0.800000*%
%ADD11R,1.000000X0.700000*%
%ADD12R,0.450000X0.950000*%
G04 APERTURE END LIST*
D10*
X29800000Y-35200000D03*
X30450000Y-35200000D03*
X29150000Y-35200000D03*
X29150000Y-33200000D03*
X30450000Y-33200000D03*
X29800000Y-33200000D03*
X37000000Y-35200000D03*
X37650000Y-35200000D03*
X36350000Y-35200000D03*
X36350000Y-33200000D03*
X37650000Y-33200000D03*
X37000000Y-33200000D03*
X12200000Y-47600000D03*
X12850000Y-47600000D03*
X11550000Y-47600000D03*
X11550000Y-45600000D03*
X12850000Y-45600000D03*
X12200000Y-45600000D03*
X19400000Y-47600000D03*
X20050000Y-47600000D03*
X18750000Y-47600000D03*
X18750000Y-45600000D03*
X20050000Y-45600000D03*
X19400000Y-45600000D03*
X25000000Y-47600000D03*
X25650000Y-47600000D03*
X24350000Y-47600000D03*
X24350000Y-45600000D03*
X25650000Y-45600000D03*
X25000000Y-45600000D03*
X32200000Y-47600000D03*
X32850000Y-47600000D03*
X31550000Y-47600000D03*
X31550000Y-45600000D03*
X32850000Y-45600000D03*
X32200000Y-45600000D03*
X37800000Y-47600000D03*
X38450000Y-47600000D03*
X37150000Y-47600000D03*
X37150000Y-45600000D03*
X38450000Y-45600000D03*
X37800000Y-45600000D03*
X45000000Y-47600000D03*
X45650000Y-47600000D03*
X44350000Y-47600000D03*
X44350000Y-45600000D03*
X45650000Y-45600000D03*
X45000000Y-45600000D03*
X50600000Y-47600000D03*
X51250000Y-47600000D03*
X49950000Y-47600000D03*
X49950000Y-45600000D03*
X51250000Y-45600000D03*
X50600000Y-45600000D03*
X57800000Y-47600000D03*
X58450000Y-47600000D03*
X57150000Y-47600000D03*
X57150000Y-45600000D03*
X58450000Y-45600000D03*
X57800000Y-45600000D03*
D11*
X57900000Y-29750000D03*
X57900000Y-28250000D03*
X55300000Y-29750000D03*
X55300000Y-28250000D03*
X52700000Y-29750000D03*
X52700000Y-28250000D03*
X50100000Y-29750000D03*
X50100000Y-28250000D03*
X47500000Y-29750000D03*
X47500000Y-28250000D03*
X44900000Y-29750000D03*
X44900000Y-28250000D03*
X42300000Y-29750000D03*
X42300000Y-28250000D03*
X39700000Y-29750000D03*
X39700000Y-28250000D03*
X27000000Y-29550000D03*
X27000000Y-28050000D03*
X12000000Y-29550000D03*
X12000000Y-28050000D03*
D12*
X53800000Y-47350000D03*
X53800000Y-45850000D03*
X54600000Y-45850000D03*
X54600000Y-47350000D03*
X55400000Y-47350000D03*
X55400000Y-45850000D03*
X53000000Y-45850000D03*
X53000000Y-47350000D03*
X41000000Y-47350000D03*
X41000000Y-45850000D03*
X41800000Y-45850000D03*
X41800000Y-47350000D03*
X42600000Y-47350000D03*
X42600000Y-45850000D03*
X40200000Y-45850000D03*
X40200000Y-47350000D03*
X28200000Y-47350000D03*
X28200000Y-45850000D03*
X29000000Y-45850000D03*
X29000000Y-47350000D03*
X29800000Y-47350000D03*
X29800000Y-45850000D03*
X27400000Y-45850000D03*
X27400000Y-47350000D03*
X15400000Y-47350000D03*
X15400000Y-45850000D03*
X16200000Y-45850000D03*
X16200000Y-47350000D03*
X17000000Y-47350000D03*
X17000000Y-45850000D03*
X14600000Y-45850000D03*
X14600000Y-47350000D03*
X33000000Y-34950000D03*
X33000000Y-33450000D03*
X33800000Y-33450000D03*
X33800000Y-34950000D03*
X34600000Y-34950000D03*
X34600000Y-33450000D03*
X32200000Y-33450000D03*
X32200000Y-34950000D03*
M02*
