M48
; DRILL file {KiCad (5.1.9)-1} date 09/15/21 15:10:53
; FORMAT={-:-/ absolute / inch / decimal}
; #@! TF.CreationDate,2021-09-15T15:10:53+02:00
; #@! TF.GenerationSoftware,Kicad,Pcbnew,(5.1.9)-1
; #@! TF.FileFunction,Plated,1,2,PTH
FMAT,2
INCH
T1C0.0118
T2C0.0276
T3C0.0394
%
G90
G05
T1
X0.063Y-1.6417
X0.063Y-1.6811
X0.063Y-1.7165
X0.063Y-1.874
X0.1762Y-1.6191
X0.2747Y-1.6374
X0.2992Y-0.622
X0.3051Y-1.2205
X0.3051Y-1.252
X0.3051Y-1.2835
X0.3061Y-1.6388
X0.3389Y-1.795
X0.3858Y-1.8898
X0.4331Y-1.6299
X0.4331Y-1.7165
X0.4724Y-0.9488
X0.4724Y-1.1043
X0.4724Y-1.1634
X0.4803Y-1.9124
X0.5591Y-1.6299
X0.5591Y-1.7165
X0.5906Y-0.4567
X0.6693Y-0.9488
X0.6693Y-1.1634
X0.685Y-1.6299
X0.685Y-1.7165
X0.748Y-1.7559
X0.7638Y-1.9134
X0.811Y-1.6299
X0.811Y-1.7165
X0.8504Y-1.8888
X0.8661Y-0.9488
X0.8661Y-1.2835
X0.9213Y-0.748
X0.937Y-1.6299
X0.937Y-1.7165
X0.9449Y-1.3622
X0.9852Y-1.9124
X1.0246Y-1.3612
X1.063Y-0.9488
X1.063Y-1.1043
X1.063Y-1.1634
X1.063Y-1.6299
X1.063Y-1.7165
X1.126Y-1.6693
X1.1575Y-0.8425
X1.1742Y-1.4242
X1.189Y-1.6299
X1.189Y-1.7165
X1.2047Y-0.8189
X1.252Y-1.2441
X1.252Y-1.7559
X1.2677Y-1.9134
X1.315Y-1.2441
X1.315Y-1.6299
X1.315Y-1.7165
X1.3543Y-0.4567
X1.3622Y-0.8898
X1.3622Y-0.9213
X1.3622Y-0.9528
X1.378Y-1.2441
X1.378Y-1.4724
X1.378Y-1.7165
X1.378Y-1.9528
X1.4173Y-1.9124
X1.4252Y-1.2677
X1.4252Y-1.4724
X1.4299Y-0.8898
X1.4299Y-0.9213
X1.4299Y-0.9528
X1.4409Y-1.6299
X1.4409Y-1.7165
X1.4567Y-1.2677
X1.4567Y-1.4252
X1.4567Y-1.9764
X1.4882Y-1.9124
X1.4882Y-1.9764
X1.5059Y-1.2677
X1.5251Y-1.4279
X1.5512Y-0.8661
X1.563Y-1.1102
X1.563Y-1.1732
X1.5669Y-1.6299
X1.5669Y-1.7165
X1.5713Y-0.9682
X1.6299Y-1.9528
X1.6535Y-0.8268
X1.6654Y-1.1102
X1.6654Y-1.1732
X1.6713Y-0.9682
X1.6929Y-1.6299
X1.6929Y-1.7165
X1.7402Y-1.063
X1.7598Y-1.7559
X1.7677Y-1.1102
X1.7677Y-1.1732
X1.7713Y-0.9682
X1.7717Y-1.9134
X1.8189Y-1.6299
X1.8189Y-1.7165
X1.8349Y-1.953
X1.8583Y-1.8731
X1.8701Y-0.9694
X1.8701Y-1.1102
X1.8701Y-1.1732
X1.9213Y-0.937
X1.9449Y-1.6299
X1.9449Y-1.7165
X1.9685Y-0.7323
X1.9724Y-0.9694
X1.9724Y-1.1102
X1.9724Y-1.1732
X1.9931Y-1.9124
X2.0709Y-1.6299
X2.0709Y-1.7165
X2.0713Y-0.9682
X2.0748Y-1.1102
X2.0748Y-1.1732
X2.126Y-0.9134
X2.1713Y-0.9682
X2.1772Y-1.1102
X2.1772Y-1.1732
X2.1969Y-1.6299
X2.1969Y-1.7165
X2.2205Y-0.937
X2.2598Y-1.7559
X2.2713Y-0.9682
X2.2756Y-1.9134
X2.2795Y-1.1102
X2.2795Y-1.1732
X2.3219Y-0.9065
X2.3219Y-0.8356
X2.3228Y-0.874
X2.3228Y-1.6299
X2.3228Y-1.7165
X2.3543Y-0.7953
X2.3543Y-1.9449
X2.377Y-0.7254
X2.378Y-0.7638
X2.378Y-1.8346
X2.3858Y-0.5984
X2.3858Y-0.6378
X2.4016Y-1.7559
X2.4252Y-1.9134
X2.4409Y-0.5354
X2.4409Y-0.5984
X2.5787Y-1.0157
X2.5827Y-0.8898
X2.6696Y-0.8473
T2
X0.1272Y-0.1236
X0.1272Y-0.2236
X0.1272Y-0.3236
X0.1272Y-0.4236
X0.1272Y-0.5236
X0.1272Y-0.6236
X0.1272Y-0.7236
X0.1272Y-0.8236
X0.1272Y-0.9236
X0.1272Y-1.0236
X0.1272Y-1.1236
X0.1272Y-1.2236
X0.1272Y-1.3236
X0.1272Y-1.4236
X0.1272Y-1.5236
X0.1272Y-1.6236
X0.1272Y-1.7236
X0.1272Y-1.8236
X0.1272Y-1.9236
X0.2272Y-0.1236
X0.2272Y-0.2236
X0.2272Y-0.3236
X0.2272Y-0.4236
X0.2272Y-0.5236
X0.2272Y-0.6236
X0.2272Y-0.7236
X0.2272Y-0.8236
X0.2272Y-0.9236
X0.2272Y-1.0236
X0.2272Y-1.1236
X0.2272Y-1.2236
X0.2272Y-1.3236
X0.2272Y-1.4236
X0.2272Y-1.5236
X0.2272Y-1.6236
X0.2272Y-1.7236
X0.2272Y-1.8236
X0.2272Y-1.9236
X2.5287Y-0.1236
X2.5287Y-0.2236
X2.5287Y-0.3236
X2.5287Y-0.4236
X2.5287Y-0.5236
X2.5287Y-0.6236
X2.5287Y-0.7236
X2.5287Y-0.8236
X2.5287Y-0.9236
X2.5287Y-1.0236
X2.5287Y-1.1236
X2.5287Y-1.2236
X2.5287Y-1.3236
X2.5287Y-1.4236
X2.5287Y-1.5236
X2.5287Y-1.6236
X2.5287Y-1.7236
X2.5287Y-1.8236
X2.5287Y-1.9236
X2.6287Y-0.1236
X2.6287Y-0.2236
X2.6287Y-0.3236
X2.6287Y-0.4236
X2.6287Y-0.5236
X2.6287Y-0.6236
X2.6287Y-0.7236
X2.6287Y-0.8236
X2.6287Y-0.9236
X2.6287Y-1.0236
X2.6287Y-1.1236
X2.6287Y-1.2236
X2.6287Y-1.3236
X2.6287Y-1.4236
X2.6287Y-1.5236
X2.6287Y-1.6236
X2.6287Y-1.7236
X2.6287Y-1.8236
X2.6287Y-1.9236
T3
X0.4925Y-0.5563
X0.4925Y-0.6563
X0.5925Y-0.5563
X0.5925Y-0.6563
X0.6925Y-0.5563
X0.6925Y-0.6563
X0.7925Y-0.5563
X0.7925Y-0.6563
X0.8925Y-0.5563
X0.8925Y-0.6563
X0.9925Y-0.5563
X0.9925Y-0.6563
X1.0925Y-0.5563
X1.0925Y-0.6563
X1.1925Y-0.5563
X1.1925Y-0.6563
X1.4004Y-0.5563
X1.4004Y-0.6563
X1.5004Y-0.5563
X1.5004Y-0.6563
X1.6004Y-0.5563
X1.6004Y-0.6563
X1.7004Y-0.5563
X1.7004Y-0.6563
X1.8004Y-0.5563
X1.8004Y-0.6563
X1.9004Y-0.5563
X1.9004Y-0.6563
X2.0004Y-0.5563
X2.0004Y-0.6563
X2.1004Y-0.5563
X2.1004Y-0.6563
X2.2004Y-0.5563
X2.2004Y-0.6563
X2.3004Y-0.5563
X2.3004Y-0.6563
T0
M30
