G04 #@! TF.GenerationSoftware,KiCad,Pcbnew,(5.1.9)-1*
G04 #@! TF.CreationDate,2021-09-15T15:10:51+02:00*
G04 #@! TF.ProjectId,Shield-IO,53686965-6c64-42d4-994f-2e6b69636164,rev?*
G04 #@! TF.SameCoordinates,PXd59f80PYd59f80*
G04 #@! TF.FileFunction,Soldermask,Bot*
G04 #@! TF.FilePolarity,Negative*
%FSLAX46Y46*%
G04 Gerber Fmt 4.6, Leading zero omitted, Abs format (unit mm)*
G04 Created by KiCad (PCBNEW (5.1.9)-1) date 2021-09-15 15:10:51*
%MOMM*%
%LPD*%
G01*
G04 APERTURE LIST*
%ADD10R,0.350000X0.800000*%
%ADD11R,1.000000X0.700000*%
%ADD12C,1.400000*%
%ADD13C,1.600000*%
%ADD14R,0.450000X0.950000*%
G04 APERTURE END LIST*
D10*
X29800000Y-35200000D03*
X30450000Y-35200000D03*
X29150000Y-35200000D03*
X29150000Y-33200000D03*
X30450000Y-33200000D03*
X29800000Y-33200000D03*
X37000000Y-35200000D03*
X37650000Y-35200000D03*
X36350000Y-35200000D03*
X36350000Y-33200000D03*
X37650000Y-33200000D03*
X37000000Y-33200000D03*
X12200000Y-47600000D03*
X12850000Y-47600000D03*
X11550000Y-47600000D03*
X11550000Y-45600000D03*
X12850000Y-45600000D03*
X12200000Y-45600000D03*
X19400000Y-47600000D03*
X20050000Y-47600000D03*
X18750000Y-47600000D03*
X18750000Y-45600000D03*
X20050000Y-45600000D03*
X19400000Y-45600000D03*
X25000000Y-47600000D03*
X25650000Y-47600000D03*
X24350000Y-47600000D03*
X24350000Y-45600000D03*
X25650000Y-45600000D03*
X25000000Y-45600000D03*
X32200000Y-47600000D03*
X32850000Y-47600000D03*
X31550000Y-47600000D03*
X31550000Y-45600000D03*
X32850000Y-45600000D03*
X32200000Y-45600000D03*
X37800000Y-47600000D03*
X38450000Y-47600000D03*
X37150000Y-47600000D03*
X37150000Y-45600000D03*
X38450000Y-45600000D03*
X37800000Y-45600000D03*
X45000000Y-47600000D03*
X45650000Y-47600000D03*
X44350000Y-47600000D03*
X44350000Y-45600000D03*
X45650000Y-45600000D03*
X45000000Y-45600000D03*
X50600000Y-47600000D03*
X51250000Y-47600000D03*
X49950000Y-47600000D03*
X49950000Y-45600000D03*
X51250000Y-45600000D03*
X50600000Y-45600000D03*
X57800000Y-47600000D03*
X58450000Y-47600000D03*
X57150000Y-47600000D03*
X57150000Y-45600000D03*
X58450000Y-45600000D03*
X57800000Y-45600000D03*
D11*
X57900000Y-29750000D03*
X57900000Y-28250000D03*
X55300000Y-29750000D03*
X55300000Y-28250000D03*
X52700000Y-29750000D03*
X52700000Y-28250000D03*
X50100000Y-29750000D03*
X50100000Y-28250000D03*
X47500000Y-29750000D03*
X47500000Y-28250000D03*
X44900000Y-29750000D03*
X44900000Y-28250000D03*
X42300000Y-29750000D03*
X42300000Y-28250000D03*
X39700000Y-29750000D03*
X39700000Y-28250000D03*
X27000000Y-29550000D03*
X27000000Y-28050000D03*
X12000000Y-29550000D03*
X12000000Y-28050000D03*
D12*
X3230000Y-36160000D03*
X5770000Y-38700000D03*
X3230000Y-41240000D03*
X5770000Y-36160000D03*
X3230000Y-38700000D03*
X5770000Y-43780000D03*
X3230000Y-46320000D03*
X5770000Y-46320000D03*
X3230000Y-48860000D03*
X3230000Y-43780000D03*
X5770000Y-48860000D03*
X5770000Y-41240000D03*
X3230000Y-8220000D03*
X5770000Y-5680000D03*
X3230000Y-5680000D03*
X5770000Y-15840000D03*
X5770000Y-31080000D03*
X5770000Y-3140000D03*
X3230000Y-23460000D03*
X3230000Y-18380000D03*
X3230000Y-3140000D03*
X5770000Y-28540000D03*
X3230000Y-15840000D03*
X5770000Y-13300000D03*
X5770000Y-8220000D03*
X5770000Y-20920000D03*
X3230000Y-13300000D03*
X3230000Y-33620000D03*
X3230000Y-31080000D03*
X3230000Y-28540000D03*
X5770000Y-23460000D03*
X5770000Y-10760000D03*
X5770000Y-33620000D03*
X5770000Y-26000000D03*
X3230000Y-26000000D03*
X3230000Y-20920000D03*
X5770000Y-18380000D03*
X3230000Y-10760000D03*
X64230000Y-36160000D03*
X66770000Y-38700000D03*
X64230000Y-41240000D03*
X66770000Y-36160000D03*
X64230000Y-38700000D03*
X66770000Y-43780000D03*
X64230000Y-46320000D03*
X66770000Y-46320000D03*
X64230000Y-48860000D03*
X64230000Y-43780000D03*
X66770000Y-48860000D03*
X66770000Y-41240000D03*
X64230000Y-8220000D03*
X66770000Y-5680000D03*
X64230000Y-5680000D03*
X66770000Y-15840000D03*
X66770000Y-31080000D03*
X66770000Y-3140000D03*
X64230000Y-23460000D03*
X64230000Y-18380000D03*
X64230000Y-3140000D03*
X66770000Y-28540000D03*
X64230000Y-15840000D03*
X66770000Y-13300000D03*
X66770000Y-8220000D03*
X66770000Y-20920000D03*
X64230000Y-13300000D03*
X64230000Y-33620000D03*
X64230000Y-31080000D03*
X64230000Y-28540000D03*
X66770000Y-23460000D03*
X66770000Y-10760000D03*
X66770000Y-33620000D03*
X66770000Y-26000000D03*
X64230000Y-26000000D03*
X64230000Y-20920000D03*
X66770000Y-18380000D03*
X64230000Y-10760000D03*
D13*
X20130000Y-14130000D03*
X30290000Y-14130000D03*
X27750000Y-14130000D03*
X15050000Y-14130000D03*
X12510000Y-14130000D03*
X25210000Y-14130000D03*
X22670000Y-14130000D03*
X17590000Y-14130000D03*
X12510000Y-16670000D03*
X15050000Y-16670000D03*
X17590000Y-16670000D03*
X20130000Y-16670000D03*
X22670000Y-16670000D03*
X25210000Y-16670000D03*
X27750000Y-16670000D03*
X30290000Y-16670000D03*
X43190000Y-14130000D03*
X53350000Y-14130000D03*
X50810000Y-14130000D03*
X38110000Y-14130000D03*
X55890000Y-14130000D03*
X35570000Y-14130000D03*
X48270000Y-14130000D03*
X45730000Y-14130000D03*
X58430000Y-14130000D03*
X40650000Y-14130000D03*
X55890000Y-16670000D03*
X58430000Y-16670000D03*
X35570000Y-16670000D03*
X38110000Y-16670000D03*
X40650000Y-16670000D03*
X43190000Y-16670000D03*
X45730000Y-16670000D03*
X48270000Y-16670000D03*
X50810000Y-16670000D03*
X53350000Y-16670000D03*
D14*
X53800000Y-47350000D03*
X53800000Y-45850000D03*
X54600000Y-45850000D03*
X54600000Y-47350000D03*
X55400000Y-47350000D03*
X55400000Y-45850000D03*
X53000000Y-45850000D03*
X53000000Y-47350000D03*
X41000000Y-47350000D03*
X41000000Y-45850000D03*
X41800000Y-45850000D03*
X41800000Y-47350000D03*
X42600000Y-47350000D03*
X42600000Y-45850000D03*
X40200000Y-45850000D03*
X40200000Y-47350000D03*
X28200000Y-47350000D03*
X28200000Y-45850000D03*
X29000000Y-45850000D03*
X29000000Y-47350000D03*
X29800000Y-47350000D03*
X29800000Y-45850000D03*
X27400000Y-45850000D03*
X27400000Y-47350000D03*
X15400000Y-47350000D03*
X15400000Y-45850000D03*
X16200000Y-45850000D03*
X16200000Y-47350000D03*
X17000000Y-47350000D03*
X17000000Y-45850000D03*
X14600000Y-45850000D03*
X14600000Y-47350000D03*
X33000000Y-34950000D03*
X33000000Y-33450000D03*
X33800000Y-33450000D03*
X33800000Y-34950000D03*
X34600000Y-34950000D03*
X34600000Y-33450000D03*
X32200000Y-33450000D03*
X32200000Y-34950000D03*
M02*
